<svg width="1034" height="178" viewBox="0 0 1034 178" fill="none" xmlns="http://www.w3.org/2000/svg">
<path d="M0.73071 91.1992V75.069L96.3598 28.6947V50.6577L25.7902 82.8461L26.4382 81.5499V84.6463L25.7902 83.4222L96.3598 115.539V137.574L0.73071 91.1992ZM239.122 7.52374V155H218.672L143.709 46.8411H142.341V155H120.09V7.52374H140.685L215.719 115.827H217.087V7.52374H239.122ZM271.872 155H248.252L301.324 7.52374H327.031L380.103 155H356.483L314.79 34.3114H313.637L271.872 155ZM275.832 97.2481H352.451V115.971H275.832V97.2481ZM468.48 46.2651C467.711 39.4481 464.543 34.1674 458.974 30.4229C453.406 26.6304 446.397 24.7341 437.947 24.7341C431.899 24.7341 426.666 25.6942 422.249 27.6145C417.833 29.4868 414.4 32.0791 411.952 35.3916C409.551 38.656 408.351 42.3765 408.351 46.5531C408.351 50.0576 409.167 53.082 410.8 55.6263C412.48 58.1707 414.664 60.307 417.353 62.0352C420.089 63.7155 423.017 65.1317 426.138 66.2838C429.258 67.388 432.259 68.3001 435.139 69.0202L449.541 72.7647C454.246 73.9169 459.07 75.4771 464.015 77.4453C468.96 79.4136 473.544 82.006 477.769 85.2224C481.993 88.4389 485.402 92.4234 487.994 97.1761C490.635 101.929 491.955 107.617 491.955 114.242C491.955 122.596 489.795 130.013 485.474 136.493C481.201 142.974 474.984 148.087 466.823 151.832C458.71 155.576 448.893 157.448 437.371 157.448C426.33 157.448 416.776 155.696 408.711 152.192C400.646 148.687 394.333 143.718 389.773 137.286C385.212 130.805 382.692 123.124 382.212 114.242H404.535C404.967 119.571 406.695 124.012 409.72 127.564C412.792 131.069 416.704 133.685 421.457 135.413C426.258 137.094 431.515 137.934 437.227 137.934C443.516 137.934 449.109 136.95 454.006 134.981C458.95 132.965 462.839 130.181 465.671 126.628C468.504 123.028 469.92 118.827 469.92 114.026C469.92 109.658 468.672 106.081 466.175 103.297C463.727 100.513 460.39 98.2082 456.166 96.384C451.989 94.5597 447.261 92.9515 441.98 91.5593L424.554 86.8066C412.744 83.5902 403.383 78.8615 396.47 72.6207C389.605 66.3798 386.172 58.1227 386.172 47.8493C386.172 39.3521 388.477 31.9351 393.085 25.5982C397.694 19.2614 403.935 14.3407 411.808 10.8362C419.681 7.28371 428.562 5.50747 438.451 5.50747C448.437 5.50747 457.246 7.25971 464.879 10.7642C472.56 14.2687 478.609 19.0933 483.026 25.2382C487.442 31.335 489.747 38.344 489.939 46.2651H468.48ZM528.629 7.52374V155H506.378V7.52374H528.629ZM548.866 155V7.52374H601.434C612.859 7.52374 622.341 9.49201 629.878 13.4286C637.463 17.3651 643.127 22.8138 646.872 29.7748C650.616 36.6878 652.489 44.6809 652.489 53.7541C652.489 62.7793 650.592 70.7244 646.8 77.5894C643.055 84.4063 637.391 89.711 629.806 93.5036C622.268 97.2961 612.787 99.1923 601.362 99.1923H561.54V80.0377H599.345C606.546 80.0377 612.403 79.0056 616.916 76.9413C621.476 74.877 624.813 71.8766 626.925 67.94C629.037 64.0035 630.094 59.2749 630.094 53.7541C630.094 48.1853 629.013 43.3607 626.853 39.2801C624.741 35.1995 621.404 32.0791 616.844 29.9188C612.331 27.7105 606.402 26.6064 599.057 26.6064H571.117V155H548.866ZM621.668 88.4629L658.105 155H632.758L597.041 88.4629H621.668ZM772.337 71.9006V90.6232H706.952V71.9006H772.337ZM854.035 71.9006V90.6232H788.65V71.9006H854.035ZM926.732 0.610789L879.205 177.179H859.979L907.505 0.610789H926.732ZM1033.74 105.025L938.112 151.4V129.364L1008.68 97.2481L1007.96 98.4722V95.3758L1008.68 96.672L938.112 64.4836V42.5206L1033.74 88.8949V105.025Z" fill="black"/>
</svg>
